<svg xmlns="http://www.w3.org/2000/svg" viewBox="0 0 1024 1024">
  <rect width="1024" height="1024" fill="#0B0C0E"/>
  <path fill="#C8F031" fill-rule="nonzero" d="
    M 512 152
    A 270 270 0 0 1 772.8 352
    L 609.5 352
    A 120 120 0 0 0 512 302
    A 120 120 0 0 0 392 422
    L 392 602
    A 120 120 0 0 0 512 722
    A 120 120 0 0 0 632 602
    L 632 452
    L 782 452
    L 782 602
    A 270 270 0 0 1 512 872
    A 270 270 0 0 1 242 602
    L 242 422
    A 270 270 0 0 1 512 152
    Z
    M 512 452 L 782 452 L 782 602 L 512 602 Z"/>
</svg>
